<svg width="15" height="16" viewBox="0 0 15 16" fill="none" xmlns="http://www.w3.org/2000/svg">
<path d="M5.48835 12.6667C2.13967 13.6667 2.13967 11 0.800201 10.6667M10.1765 14.6667V12.0867C10.2016 11.7688 10.1585 11.4492 10.0499 11.1492C9.94138 10.8492 9.76992 10.5756 9.54694 10.3467C11.6499 10.1133 13.86 9.32 13.86 5.68C13.8599 4.74922 13.5002 3.85413 12.8554 3.18C13.1607 2.36567 13.1392 1.46557 12.7952 0.666666C12.7952 0.666666 12.0049 0.433332 10.1765 1.65333C8.64147 1.23921 7.02338 1.23921 5.48835 1.65333C3.65997 0.433332 2.86968 0.666666 2.86968 0.666666C2.52569 1.46557 2.5041 2.36567 2.80941 3.18C2.15985 3.85913 1.7998 4.76231 1.8048 5.7C1.8048 9.31333 4.01493 10.1067 6.1179 10.3667C5.89756 10.5933 5.72762 10.8636 5.61915 11.1599C5.51069 11.4563 5.46612 11.772 5.48835 12.0867V14.6667" stroke="#1E1E1E" stroke-width="1.6" stroke-linecap="round" stroke-linejoin="round"/>
</svg>
