<svg width="20" height="20" viewBox="0 0 20 20" fill="none" xmlns="http://www.w3.org/2000/svg">
<g clip-path="url(#clip0_23_51)">
<path d="M14.5833 5.41667H14.5917M5.83333 1.66667H14.1667C16.4679 1.66667 18.3333 3.53215 18.3333 5.83333V14.1667C18.3333 16.4679 16.4679 18.3333 14.1667 18.3333H5.83333C3.53214 18.3333 1.66666 16.4679 1.66666 14.1667V5.83333C1.66666 3.53215 3.53214 1.66667 5.83333 1.66667ZM13.3333 9.475C13.4362 10.1685 13.3177 10.8768 12.9948 11.4992C12.6719 12.1215 12.161 12.6262 11.5347 12.9414C10.9084 13.2566 10.1987 13.3663 9.50649 13.2549C8.81427 13.1436 8.1748 12.8167 7.67903 12.321C7.18326 11.8252 6.85644 11.1857 6.74505 10.4935C6.63367 9.8013 6.74338 9.09158 7.0586 8.46531C7.37382 7.83905 7.87849 7.32812 8.50082 7.0052C9.12315 6.68229 9.83146 6.56383 10.525 6.66667C11.2324 6.77157 11.8874 7.10122 12.3931 7.60692C12.8988 8.11263 13.2284 8.76757 13.3333 9.475Z" stroke="white" stroke-width="2" stroke-linecap="round" stroke-linejoin="round"/>
</g>
<defs>
<clipPath id="clip0_23_51">
<rect width="20" height="20" fill="white"/>
</clipPath>
</defs>
</svg>
