<svg width="20" height="20" viewBox="0 0 20 20" fill="none" xmlns="http://www.w3.org/2000/svg">
<path d="M19.1667 2.5C18.3687 3.0629 17.4851 3.49342 16.55 3.775C16.0481 3.19792 15.3811 2.78891 14.6392 2.60327C13.8973 2.41763 13.1162 2.46433 12.4017 2.73704C11.6872 3.00976 11.0737 3.49533 10.6442 4.1281C10.2146 4.76086 9.98975 5.51028 10 6.275V7.10833C8.53553 7.14631 7.0844 6.82151 5.77584 6.16287C4.46729 5.50423 3.34193 4.5322 2.5 3.33333C2.5 3.33333 -0.83333 10.8333 6.66667 14.1667C4.95044 15.3316 2.90597 15.9158 0.833336 15.8333C8.33333 20 17.5 15.8333 17.5 6.25C17.4992 6.01788 17.4769 5.78633 17.4333 5.55833C18.2838 4.71958 18.884 3.66059 19.1667 2.5Z" stroke="white" stroke-width="1.6" stroke-linecap="round" stroke-linejoin="round"/>
</svg>
